<svg width="58" height="50" viewBox="0 0 58 50" fill="none" xmlns="http://www.w3.org/2000/svg">
<path d="M27.4074 24.9983L27.7719 24.3654L35.3569 11.2333L28.8721 0L14.4344 24.9983L28.8721 50L35.3569 38.7667L27.7719 25.6346L27.4074 24.9983Z" fill="white"/>
<path d="M19.8224 36.8646L14.4344 46.1959L2.19696 24.9983L14.4344 3.8041L19.8224 13.1321L20.9225 11.2333L14.4344 0L0 24.9983L14.4344 50L20.9225 38.7667L19.8224 36.8646Z" fill="white"/>
<path d="M42.9782 21.946L42.9882 21.9527V17.9199L33.8855 33.6831L35.042 35.6878L42.9782 21.946Z" fill="white"/>
<path d="M42.9783 16.4324L42.9882 16.439V12.4062L32.295 30.9297L33.4515 32.9311L42.9783 16.4324Z" fill="white"/>
<path d="M30.2671 27.4171L42.9783 5.40765L42.9883 5.41428V0.549805L28.872 24.9981L30.2671 27.4171Z" fill="white"/>
<path d="M42.9782 10.9183L42.9881 10.9249V6.89551L30.701 28.1726L31.8575 30.1741L42.9782 10.9183Z" fill="white"/>
<path d="M43.6211 0.549805V49.4497L57.7407 24.9981L43.6211 0.549805Z" fill="white"/>
<path d="M42.9782 27.4568L42.9882 27.4634V23.4307L35.4761 36.4401L36.6325 38.4416L42.9782 27.4568Z" fill="white"/>
<path d="M42.9782 32.9709L42.9882 32.9776V28.9448L37.0699 39.1973L38.2264 41.1988L42.9782 32.9709Z" fill="white"/>
<path d="M42.9882 44.2007L41.4738 46.8251L42.9882 49.4495V44.2007Z" fill="white"/>
<path d="M41.0398 46.0697L42.9782 42.713L42.9882 42.7196V39.9692L40.2511 44.7111L41.0398 46.0697Z" fill="white"/>
<path d="M42.9782 38.4813L42.9882 38.4879V34.4585L38.6605 41.954L39.817 43.9555L42.9782 38.4813Z" fill="white"/>
</svg>
